<svg width="31" height="30" viewBox="0 0 31 30" fill="none" xmlns="http://www.w3.org/2000/svg">
<g id="dashboard-svgrepo-com 1">
<path id="Vector" d="M12.2036 27.5H5.95361C4.5729 27.5 3.45361 26.3807 3.45361 25V16.25C3.45361 14.8693 4.5729 13.75 5.95361 13.75H12.2036C13.5843 13.75 14.7036 14.8693 14.7036 16.25V25C14.7036 26.3807 13.5843 27.5 12.2036 27.5Z" fill="#264E5C"/>
<path id="Vector_2" d="M25.9536 27.5H19.7036C18.3229 27.5 17.2036 26.3807 17.2036 25V21.25C17.2036 19.8693 18.3229 18.75 19.7036 18.75H25.9536C27.3343 18.75 28.4536 19.8693 28.4536 21.25V25C28.4536 26.3807 27.3343 27.5 25.9536 27.5Z" fill="#264E5C"/>
<path id="Vector_3" d="M12.2036 11.25H5.95361C4.5729 11.25 3.45361 10.1307 3.45361 8.75V5C3.45361 3.61929 4.5729 2.5 5.95361 2.5H12.2036C13.5843 2.5 14.7036 3.61929 14.7036 5V8.75C14.7036 10.1307 13.5843 11.25 12.2036 11.25Z" fill="#264E5C"/>
<path id="Vector_4" d="M25.9536 16.25H19.7036C18.3229 16.25 17.2036 15.1307 17.2036 13.75V5C17.2036 3.61929 18.3229 2.5 19.7036 2.5H25.9536C27.3343 2.5 28.4536 3.61929 28.4536 5V13.75C28.4536 15.1307 27.3343 16.25 25.9536 16.25Z" fill="#264E5C"/>
</g>
</svg>
