<svg width="52" height="51" viewBox="0 0 96 96" fill="none" xmlns="http://www.w3.org/2000/svg">
<g id="Group 16">
<rect id="wallet-info.png" width="95.6821" height="95.323" rx="12" fill="#FFFBD8"/>
<g id="Group 15">
<g id="Vector">
<path d="M46.5166 51.8799C37.6078 52.6852 30.8205 60.213 30.9388 69.1572V69.6108C30.9388 71.3426 32.3427 72.7465 34.0744 72.7465C35.8061 72.7465 37.21 71.3426 37.21 69.6108V69.0318C37.1158 63.5401 41.1686 58.8569 46.6169 58.1617C52.3681 57.5914 57.4928 61.7914 58.0631 67.5426C58.0968 67.8826 58.1139 68.224 58.1142 68.5657V69.6108C58.1142 71.3426 59.518 72.7465 61.2498 72.7465C62.9815 72.7465 64.3854 71.3426 64.3854 69.6108V68.5656C64.3752 59.3191 56.8712 51.8317 47.6248 51.8419C47.2551 51.8424 46.8855 51.8551 46.5166 51.8799Z" fill="#E8D527"/>
<path d="M47.5 48C54.4035 48 60 42.4035 60 35.5C60 28.5965 54.4035 23 47.5 23C40.5965 23 35 28.5965 35 35.5C35.0068 42.4007 40.5993 47.9931 47.5 48ZM47.5 29.25C50.9518 29.25 53.75 32.0482 53.75 35.5C53.75 38.9518 50.9518 41.75 47.5 41.75C44.0482 41.75 41.25 38.9518 41.25 35.5C41.25 32.0482 44.0482 29.25 47.5 29.25Z" fill="#E8D527"/>
<path d="M35 19.1633V36L47.5 25.7959V11L42.0652 22.7347L35 19.1633Z" fill="#E8D527"/>
<path d="M60 19.1633V36L47.5 25.7959V11L52.9348 22.7347L60 19.1633Z" fill="#E8D527"/>
</g>
</g>
</g>
</svg>
