<svg width="26" height="30" viewBox="0 0 26 30" fill="none" xmlns="http://www.w3.org/2000/svg">
<g id="Group">
<g id="Group_2">
<path id="Vector" d="M25.3981 3.75V2.50002C25.3981 1.12125 24.2873 0 22.9213 0H3.10645C1.74051 0 0.629639 1.12125 0.629639 2.50002V3.75C0.629639 5.12877 1.74051 6.25002 3.10651 6.25002V13.75C1.74051 13.75 0.629639 14.8713 0.629639 16.25V17.5C0.629639 18.8788 1.74051 20 3.10651 20V27.5C3.10645 28.8788 4.21732 30 5.58332 30H20.4444C21.8104 30 22.9213 28.8787 22.9213 27.5V20C24.2873 20 25.3982 18.8787 25.3982 17.5V16.25C25.3982 14.8712 24.2873 13.75 22.9213 13.75V6.24996C24.2873 6.25002 25.3981 5.12877 25.3981 3.75ZM14.2523 23.75H11.7754C11.0906 23.75 10.537 23.19 10.537 22.5C10.537 21.81 11.0906 21.25 11.7754 21.25H14.2523C14.9371 21.25 15.4907 21.81 15.4907 22.5C15.4907 23.19 14.9372 23.75 14.2523 23.75ZM22.9225 17.5H21.6828H4.34492H3.10645V16.25H4.34486H21.6828H22.9212L22.9225 17.5ZM10.537 8.74998C10.537 8.05998 11.0906 7.5 11.7754 7.5H14.2523C14.9371 7.5 15.4907 8.05998 15.4907 8.74998C15.4907 9.43998 14.9371 9.99996 14.2523 9.99996H11.7754C11.0906 10 10.537 9.43998 10.537 8.74998ZM21.6828 3.75H4.34492H3.10645V2.50002H22.9212L22.9225 3.75H21.6828Z" fill="#264E5C"/>
</g>
</g>
</svg>
