<svg width="96" height="96" viewBox="0 0 96 96" fill="none" xmlns="http://www.w3.org/2000/svg">
<g id="Group 16">
<rect id="wallet-info.png" width="95.6821" height="95.323" rx="12" fill="#F4ECE7"/>
<g id="Group 15">
<path id="Vector" d="M46.5166 51.8799C37.6078 52.6852 30.8205 60.213 30.9388 69.1572V69.6108C30.9388 71.3426 32.3427 72.7465 34.0744 72.7465C35.8061 72.7465 37.21 71.3426 37.21 69.6108V69.0318C37.1158 63.5401 41.1686 58.8569 46.6169 58.1617C52.3681 57.5914 57.4928 61.7914 58.0631 67.5426C58.0968 67.8826 58.1139 68.224 58.1142 68.5657V69.6108C58.1142 71.3426 59.518 72.7465 61.2498 72.7465C62.9815 72.7465 64.3854 71.3426 64.3854 69.6108V68.5656C64.3752 59.3191 56.8712 51.8317 47.6248 51.8419C47.2551 51.8424 46.8855 51.8551 46.5166 51.8799Z" fill="#724E2D"/>
<path id="Vector_2" d="M47.6621 47.6615C54.5891 47.6615 60.2046 42.046 60.2046 35.119C60.2046 28.192 54.5891 22.5765 47.6621 22.5765C40.7351 22.5765 35.1196 28.192 35.1196 35.119C35.1265 42.0432 40.738 47.6545 47.6621 47.6615ZM47.6621 28.8478C51.1256 28.8478 53.9334 31.6555 53.9334 35.119C53.9334 38.5825 51.1256 41.3903 47.6621 41.3903C44.1986 41.3903 41.3909 38.5825 41.3909 35.119C41.3909 31.6555 44.1986 28.8478 47.6621 28.8478Z" fill="#724E2D"/>
</g>
</g>
</svg>
