<svg width="31" height="30" viewBox="0 0 31 30" fill="none" xmlns="http://www.w3.org/2000/svg">
<g id="history-svgrepo-com 1">
<path id="Vector" d="M4.40991 7.09426V3.75C4.40991 3.05965 3.85026 2.5 3.15991 2.5C2.46956 2.5 1.90991 3.05965 1.90991 3.75V8.75C1.90991 10.1307 3.0292 11.25 4.40991 11.25H9.40991C10.1003 11.25 10.6599 10.6904 10.6599 10C10.6599 9.30965 10.1003 8.75 9.40991 8.75H6.31224C6.33764 8.71881 6.36187 8.68642 6.38485 8.65286C7.68616 6.75117 9.54752 5.28639 11.7248 4.47254C14.2942 3.5121 17.1262 3.5245 19.687 4.50737C22.2479 5.49025 24.3609 7.37576 25.628 9.80862C26.895 12.2415 27.2285 15.0537 26.5658 17.7155C25.903 20.3772 24.2898 22.7048 22.0298 24.2594C19.7699 25.8141 17.0194 26.4886 14.2967 26.1559C11.5739 25.8232 9.0668 24.5063 7.24776 22.4531C5.70632 20.7132 4.74915 18.5467 4.4915 16.2569C4.41431 15.5707 3.85584 15.0099 3.16549 15.0105C2.47512 15.011 1.9045 15.5724 1.96774 16.2597C2.23484 19.1636 3.42016 21.9195 5.36824 24.1182C7.5937 26.6301 10.661 28.2414 13.992 28.6485C17.3232 29.0555 20.6882 28.2302 23.453 26.3282C26.2179 24.4262 28.1917 21.5787 29.0025 18.3222C29.8134 15.0657 29.4053 11.6252 27.8552 8.64871C26.305 5.67227 23.7199 3.36549 20.5868 2.16301C17.4538 0.960523 13.989 0.945363 10.8456 2.12039C8.23569 3.09595 5.99682 4.83601 4.40991 7.09426Z" fill="#264E5C"/>
<path id="Vector_2" d="M15.6599 6.25C14.9695 6.25 14.4099 6.80964 14.4099 7.5V15.5834C14.4099 15.5834 14.4099 15.9092 14.5683 16.1544C14.6743 16.3622 14.8395 16.543 15.0567 16.6682L20.8314 20.0024C21.4293 20.3475 22.1938 20.1426 22.5389 19.5447C22.884 18.9469 22.6793 18.1825 22.0814 17.8372L16.9099 14.8515V7.5C16.9099 6.80965 16.3503 6.25 15.6599 6.25Z" fill="#264E5C"/>
</g>
</svg>
