<svg width="29" height="30" viewBox="0 0 29 30" fill="none" xmlns="http://www.w3.org/2000/svg">
<g id="Page-1">
<g id="Icon-Set-Filled">
<path id="calendar" fill-rule="evenodd" clip-rule="evenodd" d="M13.897 16.875H15.7568V15H13.897V16.875ZM13.897 24.375H15.7568V22.5H13.897V24.375ZM21.3362 16.875H23.196V15H21.3362V16.875ZM21.3362 24.375H23.196V22.5H21.3362V24.375ZM6.45781 24.375H8.31761V22.5H6.45781V24.375ZM26.9156 7.5H2.73822V5.625C2.73822 4.59 3.5714 3.75 4.59801 3.75H8.31761V4.6875C8.31761 5.20594 8.73327 5.625 9.24751 5.625C9.76174 5.625 10.1774 5.20594 10.1774 4.6875V3.75H19.4764V4.6875C19.4764 5.20594 19.8921 5.625 20.4063 5.625C20.9205 5.625 21.3362 5.20594 21.3362 4.6875V3.75H25.0558C26.0824 3.75 26.9156 4.59 26.9156 5.625V7.5ZM25.0558 16.875C25.0558 17.91 24.2226 18.75 23.196 18.75H21.3362C20.3096 18.75 19.4764 17.91 19.4764 16.875V15C19.4764 13.965 20.3096 13.125 21.3362 13.125H23.196C24.2226 13.125 25.0558 13.965 25.0558 15V16.875ZM25.0558 24.375C25.0558 25.41 24.2226 26.25 23.196 26.25H21.3362C20.3096 26.25 19.4764 25.41 19.4764 24.375V22.5C19.4764 21.465 20.3096 20.625 21.3362 20.625H23.196C24.2226 20.625 25.0558 21.465 25.0558 22.5V24.375ZM17.6166 16.875C17.6166 17.91 16.7834 18.75 15.7568 18.75H13.897C12.8704 18.75 12.0372 17.91 12.0372 16.875V15C12.0372 13.965 12.8704 13.125 13.897 13.125H15.7568C16.7834 13.125 17.6166 13.965 17.6166 15V16.875ZM17.6166 24.375C17.6166 25.41 16.7834 26.25 15.7568 26.25H13.897C12.8704 26.25 12.0372 25.41 12.0372 24.375V22.5C12.0372 21.465 12.8704 20.625 13.897 20.625H15.7568C16.7834 20.625 17.6166 21.465 17.6166 22.5V24.375ZM10.1774 16.875C10.1774 17.91 9.34422 18.75 8.31761 18.75H6.45781C5.4312 18.75 4.59801 17.91 4.59801 16.875V15C4.59801 13.965 5.4312 13.125 6.45781 13.125H8.31761C9.34422 13.125 10.1774 13.965 10.1774 15V16.875ZM10.1774 24.375C10.1774 25.41 9.34422 26.25 8.31761 26.25H6.45781C5.4312 26.25 4.59801 25.41 4.59801 24.375V22.5C4.59801 21.465 5.4312 20.625 6.45781 20.625H8.31761C9.34422 20.625 10.1774 21.465 10.1774 22.5V24.375ZM25.0558 1.875H21.3362V0.9375C21.3362 0.42 20.9205 0 20.4063 0C19.8921 0 19.4764 0.42 19.4764 0.9375V1.875H10.1774V0.9375C10.1774 0.42 9.76174 0 9.24751 0C8.73327 0 8.31761 0.42 8.31761 0.9375V1.875H4.59801C2.54387 1.875 0.878418 3.55406 0.878418 5.625V26.25C0.878418 28.3209 2.54387 30 4.59801 30H25.0558C27.1099 30 28.7754 28.3209 28.7754 26.25V5.625C28.7754 3.55406 27.1099 1.875 25.0558 1.875ZM6.45781 16.875H8.31761V15H6.45781V16.875Z" fill="#112C34"/>
</g>
</g>
</svg>
