<svg width="42" height="37" viewBox="0 0 42 37" fill="none" xmlns="http://www.w3.org/2000/svg">
<path id="Vector" d="M33.25 0H8.75C6.43021 0.00267049 4.20623 0.889483 2.56588 2.46592C0.925543 4.04235 0.00277875 6.17968 0 8.40909L0 28.5909C0.00277875 30.8203 0.925543 32.9577 2.56588 34.5341C4.20623 36.1105 6.43021 36.9973 8.75 37H33.25C35.5698 36.9973 37.7938 36.1105 39.4341 34.5341C41.0745 32.9577 41.9972 30.8203 42 28.5909V8.40909C41.9972 6.17968 41.0745 4.04235 39.4341 2.46592C37.7938 0.889483 35.5698 0.00267049 33.25 0ZM8.75 3.36364H33.25C34.2979 3.36562 35.3212 3.66891 36.1882 4.23449C37.0552 4.80007 37.7262 5.60205 38.115 6.53723L24.7135 19.4183C23.7273 20.3623 22.392 20.8923 21 20.8923C19.608 20.8923 18.2727 20.3623 17.2865 19.4183L3.885 6.53723C4.27376 5.60205 4.94482 4.80007 5.81183 4.23449C6.67884 3.66891 7.70213 3.36562 8.75 3.36364ZM33.25 33.6364H8.75C7.35761 33.6364 6.02226 33.1048 5.03769 32.1586C4.05312 31.2124 3.5 29.929 3.5 28.5909V10.9318L14.812 21.7964C16.4546 23.371 18.6799 24.2552 21 24.2552C23.32 24.2552 25.5454 23.371 27.188 21.7964L38.5 10.9318V28.5909C38.5 29.929 37.9469 31.2124 36.9623 32.1586C35.9777 33.1048 34.6424 33.6364 33.25 33.6364Z" fill="#264E5C"/>
</svg>
