<svg width="34" height="36" viewBox="0 0 34 36" fill="none" xmlns="http://www.w3.org/2000/svg">
<path id="Vector" d="M33.7137 20.4873L30.7439 10.2344C29.8734 7.23078 27.9816 4.59251 25.3691 2.739C22.7567 0.885484 19.5735 -0.0769056 16.3256 0.00480519C13.0777 0.086516 9.95142 1.20764 7.44376 3.18996C4.9361 5.17229 3.19095 7.90205 2.4857 10.9454L0.186468 20.8667C-0.0675021 21.963 -0.0616302 23.1 0.20365 24.1938C0.46893 25.2876 0.986844 26.3103 1.71916 27.1863C2.45147 28.0624 3.37948 28.7694 4.43467 29.2552C5.48986 29.741 6.6453 29.9932 7.81566 29.9932H9.55689C9.91563 31.6884 10.8741 33.2125 12.2699 34.3072C13.6657 35.402 15.413 36 17.2158 36C19.0185 36 20.7658 35.402 22.1616 34.3072C23.5575 33.2125 24.5159 31.6884 24.8747 29.9932H26.1845C27.3893 29.9933 28.5778 29.726 29.6572 29.2124C30.7366 28.6988 31.6776 27.9527 32.4067 27.0323C33.1358 26.1119 33.6333 25.0423 33.8603 23.9069C34.0873 22.7715 34.0376 21.6012 33.7152 20.4873H33.7137ZM17.2158 32.9928C16.2494 32.989 15.3079 32.6987 14.52 32.1618C13.7321 31.6248 13.1364 30.8674 12.8143 29.9932H21.6173C21.2952 30.8674 20.6994 31.6248 19.9116 32.1618C19.1237 32.6987 18.1821 32.989 17.2158 32.9928ZM29.917 25.2162C29.4815 25.7707 28.9172 26.22 28.269 26.5285C27.6208 26.837 26.9065 26.9963 26.1829 26.9935H7.81566C7.11352 26.9934 6.42037 26.842 5.78737 26.5504C5.15437 26.2589 4.59769 25.8347 4.1584 25.3091C3.71912 24.7835 3.40846 24.1699 3.24934 23.5137C3.09022 22.8575 3.08672 22.1753 3.23908 21.5176L5.53675 11.5948C6.09062 9.20436 7.46133 7.0602 9.43099 5.50315C11.4007 3.9461 13.8562 3.06551 16.4073 3.00138C18.9585 2.93725 21.4587 3.69326 23.5106 5.14922C25.5625 6.60518 27.0484 8.67753 27.7319 11.0368L30.7017 21.2897C30.8979 21.9576 30.9292 22.6603 30.793 23.3419C30.6568 24.0235 30.3568 24.6653 29.917 25.2162Z" fill="#264E5C"/>
</svg>
