<svg width="26" height="31" viewBox="0 0 26 31" fill="none" xmlns="http://www.w3.org/2000/svg">
<path id="Vector" fill-rule="evenodd" clip-rule="evenodd" d="M8.36944 13.9502C7.51451 13.9502 6.82143 14.6441 6.82143 15.5002C6.82143 16.3562 7.51451 17.0502 8.36944 17.0502H17.6575C18.5125 17.0502 19.2055 16.3562 19.2055 15.5002C19.2055 14.6441 18.5125 13.9502 17.6575 13.9502H8.36944ZM8.36944 18.6001C7.51451 18.6001 6.82143 19.2941 6.82143 20.1501C6.82143 21.0062 7.51451 21.7001 8.36944 21.7001H17.6575C18.5125 21.7001 19.2055 21.0062 19.2055 20.1501C19.2055 19.2941 18.5125 18.6001 17.6575 18.6001H8.36944ZM13.7596 0.000213705C14.8104 -0.00139827 15.7429 -0.00282422 16.6042 0.3544C17.4655 0.711624 18.1241 1.37291 18.8659 2.11803C20.3359 3.5944 21.8082 5.06856 23.2826 6.5404C24.0268 7.28323 24.6873 7.9425 25.044 8.80491C25.4008 9.66733 25.3994 10.6011 25.3977 11.6532C25.3918 15.5529 25.3975 19.4525 25.3975 23.3522C25.3977 24.7263 25.3977 25.9102 25.2704 26.8581C25.1339 27.8741 24.8263 28.8482 24.0373 29.6382C23.2484 30.428 22.2757 30.7362 21.2609 30.8727C20.314 31.0001 19.1317 31.0001 17.7593 31H8.26758C6.89527 31.0001 5.71287 31.0001 4.766 30.8727C3.75127 30.7362 2.77858 30.428 1.9896 29.6382C1.20064 28.8482 0.892993 27.8741 0.756567 26.8581C0.629259 25.9102 0.629321 24.7263 0.629398 23.3522L0.629414 7.75035C0.629414 7.71622 0.629398 7.68219 0.629398 7.64831C0.629321 6.27427 0.629259 5.09038 0.756567 4.1423C0.892993 3.12628 1.20064 2.15235 1.98962 1.36238C2.77858 0.572405 3.75127 0.264361 4.766 0.127762C5.71286 0.000291282 6.89526 0.000353313 8.26755 0.000430812C10.0983 0.000539311 11.9289 0.00303467 13.7596 0.000213705Z" fill="#264E5C"/>
</svg>
