<svg width="31" height="30" viewBox="0 0 31 30" fill="none" xmlns="http://www.w3.org/2000/svg">
<path id="Vector" d="M29.14 12.498H21.7095H16.7578V11.2469H22.9489C23.6321 11.2469 24.1883 10.6855 24.1883 9.99593V1.25102C24.1883 0.561432 23.6321 0 22.9489 0H8.08778C7.40458 0 6.84835 0.561432 6.84835 1.25102V10.002C6.84835 10.6916 7.40458 11.2531 8.08778 11.2531H14.2789V12.5041H9.32722H1.89666C1.21346 12.5041 0.657227 13.0655 0.657227 13.7551V18.753V23.751V28.749C0.657227 29.4386 1.21346 30 1.89666 30H9.32722C10.0104 30 10.5666 29.4386 10.5666 28.749V23.751V19.998H20.47V23.7449V28.7429C20.47 29.4325 21.0263 29.9939 21.7095 29.9939H29.14C29.8232 29.9939 30.3794 29.4325 30.3794 28.7429V23.7449V18.747V13.749C30.3794 13.0594 29.8232 12.498 29.14 12.498ZM8.08778 27.4919H3.13609V24.9898H8.08778V27.4919ZM8.08778 17.4959H3.13609V14.9939H8.08778V17.4959ZM20.47 17.4959H10.5666V14.9939H20.47V17.4959ZM27.9006 27.4919H22.9489V24.9898H27.9006V27.4919ZM27.9006 17.4959H22.9489V14.9939H27.9006V17.4959Z" fill="#264E5C"/>
</svg>
